<svg width="40" height="40" viewBox="0 0 40 40" fill="none" xmlns="http://www.w3.org/2000/svg">
<path d="M32.1885 13.3465C32.0773 13.3436 31.9687 13.3128 31.8724 13.2571C31.7762 13.2015 31.6954 13.1226 31.6374 13.0277C31.5795 12.9328 31.5461 12.8249 31.5405 12.7139C31.5349 12.6028 31.5571 12.4921 31.6052 12.3919C31.8966 11.7824 32.0288 11.109 31.9897 10.4346C31.9505 9.76022 31.7412 9.10671 31.3812 8.53506C31.0212 7.96341 30.5223 7.49225 29.9311 7.16551C29.3398 6.83877 28.6754 6.6671 27.9998 6.66652C26.4625 6.66652 26.1558 7.40986 25.5665 7.12852C25.4735 7.08434 25.392 7.01921 25.3284 6.93824C25.2648 6.85728 25.2208 6.76268 25.1998 6.66186C24.8708 5.04125 23.9511 3.60079 22.6195 2.62023C21.2879 1.63967 19.6394 1.18901 17.9942 1.35578C16.3489 1.52255 14.8244 2.29484 13.7166 3.52266C12.6089 4.75048 11.997 6.34618 11.9998 7.99986C11.9994 8.09997 11.9785 8.19894 11.9384 8.29067C11.8982 8.38239 11.8397 8.46493 11.7665 8.53319C11.3978 8.84719 11.2098 8.66652 10.6665 8.66652C10.1332 8.66763 9.60795 8.79668 9.13486 9.04284C8.66176 9.28899 8.25464 9.64507 7.94766 10.0812C7.64069 10.5173 7.44284 11.0206 7.37071 11.549C7.29859 12.0775 7.3543 12.6154 7.53317 13.1179C7.57171 13.2232 7.58307 13.3365 7.56619 13.4473C7.54932 13.5582 7.50476 13.663 7.43663 13.752C7.36851 13.8411 7.27903 13.9115 7.17646 13.9568C7.07389 14.0021 6.96155 14.0208 6.84984 14.0112C5.73129 13.9694 4.62809 14.2817 3.69735 14.9035C2.76661 15.5253 2.0558 16.4249 1.66614 17.4742C1.27648 18.5235 1.22784 19.669 1.52716 20.7476C1.82648 21.8261 2.45849 22.7828 3.33317 23.4812V21.9999C3.33317 21.823 3.40341 21.6535 3.52843 21.5285C3.65346 21.4034 3.82303 21.3332 3.99984 21.3332C4.17665 21.3332 4.34622 21.4034 4.47124 21.5285C4.59627 21.6535 4.6665 21.823 4.6665 21.9999V37.3332C4.6665 37.6868 4.80698 38.026 5.05703 38.276C5.30708 38.5261 5.64622 38.6665 5.99984 38.6665C6.35346 38.6665 6.6926 38.5261 6.94265 38.276C7.1927 38.026 7.33317 37.6868 7.33317 37.3332V23.3332C7.33317 23.1564 7.40341 22.9868 7.52843 22.8618C7.65346 22.7368 7.82303 22.6665 7.99984 22.6665C8.17665 22.6665 8.34622 22.7368 8.47124 22.8618C8.59627 22.9868 8.66651 23.1564 8.66651 23.3332V24.7825C8.71611 24.856 8.75036 24.9388 8.76717 25.0259C9.0119 26.2605 9.68451 27.3692 10.6665 28.1565V24.6665C10.6665 24.4897 10.7367 24.3201 10.8618 24.1951C10.9868 24.0701 11.1564 23.9999 11.3332 23.9999C11.51 23.9999 11.6796 24.0701 11.8046 24.1951C11.9296 24.3201 11.9998 24.4897 11.9998 24.6665V31.9999C11.9998 32.1767 12.0701 32.3462 12.1951 32.4713C12.3201 32.5963 12.4897 32.6665 12.6665 32.6665C12.8433 32.6665 13.0129 32.5963 13.1379 32.4713C13.2629 32.3462 13.3332 32.1767 13.3332 31.9999V27.3332C13.3332 27.1564 13.4034 26.9868 13.5284 26.8618C13.6535 26.7368 13.823 26.6665 13.9998 26.6665C14.1767 26.6665 14.3462 26.7368 14.4712 26.8618C14.5963 26.9868 14.6665 27.1564 14.6665 27.3332V29.2892C15.1241 29.2299 15.5723 29.112 15.9998 28.9385V25.3332C15.9998 25.1564 16.0701 24.9868 16.1951 24.8618C16.3201 24.7368 16.4897 24.6665 16.6665 24.6665C16.8433 24.6665 17.0129 24.7368 17.1379 24.8618C17.2629 24.9868 17.3332 25.1564 17.3332 25.3332V35.9999C17.3332 36.1767 17.4034 36.3462 17.5284 36.4713C17.6535 36.5963 17.823 36.6665 17.9998 36.6665C18.1766 36.6665 18.3462 36.5963 18.4712 36.4713C18.5963 36.3462 18.6665 36.1767 18.6665 35.9999V23.9999C18.6665 23.823 18.7367 23.6535 18.8618 23.5285C18.9868 23.4034 19.1564 23.3332 19.3332 23.3332C19.51 23.3332 19.6796 23.4034 19.8046 23.5285C19.9296 23.6535 19.9998 23.823 19.9998 23.9999V25.8165C20.6709 26.2949 21.4587 26.5833 22.28 26.6513C23.1013 26.7194 23.9258 26.5646 24.6665 26.2032V23.9999C24.6665 23.823 24.7367 23.6535 24.8618 23.5285C24.9868 23.4034 25.1564 23.3332 25.3332 23.3332C25.51 23.3332 25.6796 23.4034 25.8046 23.5285C25.9296 23.6535 25.9998 23.823 25.9998 23.9999V35.3332C25.9998 35.6868 26.1403 36.026 26.3904 36.276C26.6404 36.5261 26.9795 36.6665 27.3332 36.6665C27.6868 36.6665 28.0259 36.5261 28.276 36.276C28.526 36.026 28.6665 35.6868 28.6665 35.3332V21.9999C28.6665 21.823 28.7367 21.6535 28.8618 21.5285C28.9868 21.4034 29.1564 21.3332 29.3332 21.3332C29.51 21.3332 29.6796 21.4034 29.8046 21.5285C29.9296 21.6535 29.9998 21.823 29.9998 21.9999V26.3505C30.4332 26.4905 30.8801 26.5845 31.3332 26.6312V25.3332C31.3332 25.1564 31.4034 24.9868 31.5284 24.8618C31.6535 24.7368 31.823 24.6665 31.9998 24.6665C32.1766 24.6665 32.3462 24.7368 32.4712 24.8618C32.5963 24.9868 32.6665 25.1564 32.6665 25.3332V32.6665C32.6665 32.8433 32.7367 33.0129 32.8618 33.1379C32.9868 33.263 33.1564 33.3332 33.3332 33.3332C33.51 33.3332 33.6796 33.263 33.8046 33.1379C33.9296 33.0129 33.9998 32.8433 33.9998 32.6665V24.6665C33.9998 24.4897 34.0701 24.3201 34.1951 24.1951C34.3201 24.0701 34.4897 23.9999 34.6665 23.9999C34.8433 23.9999 35.0129 24.0701 35.1379 24.1951C35.2629 24.3201 35.3332 24.4897 35.3332 24.6665V25.7765C36.59 25.0515 37.5757 23.9359 38.1405 22.5995C38.7054 21.263 38.8184 19.7786 38.4626 18.372C38.1067 16.9654 37.3014 15.7134 36.1689 14.8063C35.0365 13.8993 33.6389 13.3867 32.1885 13.3465ZM18.6665 3.99986C17.5981 4.00902 16.5769 4.44162 15.827 5.20275C15.0771 5.96389 14.6598 6.9914 14.6665 8.05986C14.6665 8.23667 14.5963 8.40624 14.4712 8.53126C14.3462 8.65629 14.1767 8.72652 13.9998 8.72652C13.823 8.72652 13.6535 8.65629 13.5284 8.53126C13.4034 8.40624 13.3332 8.23667 13.3332 8.05986C13.327 6.63794 13.885 5.2716 14.8848 4.26053C15.8846 3.24947 17.2446 2.67622 18.6665 2.66652C18.8433 2.66652 19.0129 2.73676 19.1379 2.86179C19.2629 2.98681 19.3332 3.15638 19.3332 3.33319C19.3332 3.51 19.2629 3.67957 19.1379 3.80459C19.0129 3.92962 18.8433 3.99986 18.6665 3.99986Z" fill="white"/>
<path d="M7.33301 5.33301C8.43758 5.33301 9.33301 4.43758 9.33301 3.33301C9.33301 2.22844 8.43758 1.33301 7.33301 1.33301C6.22844 1.33301 5.33301 2.22844 5.33301 3.33301C5.33301 4.43758 6.22844 5.33301 7.33301 5.33301Z" fill="white"/>
<path d="M35.9997 7.33333C37.4724 7.33333 38.6663 6.13943 38.6663 4.66667C38.6663 3.19391 37.4724 2 35.9997 2C34.5269 2 33.333 3.19391 33.333 4.66667C33.333 6.13943 34.5269 7.33333 35.9997 7.33333Z" fill="white"/>
</svg>
