<?xml version="1.0" encoding="UTF-8"?>
<!DOCTYPE svg PUBLIC "-//W3C//DTD SVG 1.1//EN" "http://www.w3.org/Graphics/SVG/1.1/DTD/svg11.dtd">
<svg xmlns="http://www.w3.org/2000/svg" version="1.1" width="169px" height="30px" style="shape-rendering:geometricPrecision; text-rendering:geometricPrecision; image-rendering:optimizeQuality; fill-rule:evenodd; clip-rule:evenodd" xmlns:xlink="http://www.w3.org/1999/xlink">
<g><path style="opacity:0.825" fill="#000000" d="M 58.5,-0.5 C 59.8333,-0.5 61.1667,-0.5 62.5,-0.5C 69.9849,1.41295 73.3182,6.41295 72.5,14.5C 72.9578,20.9739 70.6244,25.9739 65.5,29.5C 62.1667,29.5 58.8333,29.5 55.5,29.5C 52.1849,28.348 50.0183,26.0147 49,22.5C 48.3333,17.5 48.3333,12.5 49,7.5C 50.1598,2.3497 53.3265,-0.316968 58.5,-0.5 Z M 59.5,4.5 C 64.91,5.61086 66.91,8.9442 65.5,14.5C 65.4495,17.223 65.1161,19.8896 64.5,22.5C 61.6286,25.113 58.7953,25.113 56,22.5C 54.4548,17.9534 54.1215,13.2867 55,8.5C 55.9066,6.39092 57.4066,5.05759 59.5,4.5 Z"/></g>
<g><path style="opacity:0.841" fill="#000000" d="M -0.5,0.5 C 5.17645,0.333909 10.8431,0.500575 16.5,1C 21.7569,6.58949 21.7569,12.2562 16.5,18C 12.8484,18.4986 9.18174,18.6653 5.5,18.5C 5.5,21.8333 5.5,25.1667 5.5,28.5C 3.5,28.5 1.5,28.5 -0.5,28.5C -0.5,19.1667 -0.5,9.83333 -0.5,0.5 Z M 5.5,4.5 C 12.3648,3.36237 15.0314,6.02903 13.5,12.5C 10.9135,13.48 8.24688,13.8134 5.5,13.5C 5.5,10.5 5.5,7.5 5.5,4.5 Z"/></g>
<g><path style="opacity:0.84" fill="#000000" d="M 23.5,0.5 C 29.1764,0.333909 34.8431,0.500575 40.5,1C 41.4162,1.37424 42.2496,1.87424 43,2.5C 44.4833,5.70238 44.8166,9.03571 44,12.5C 43.5,14.3333 42.3333,15.5 40.5,16C 43.2391,19.7132 44.9058,23.8799 45.5,28.5C 43.396,28.7989 41.396,28.4656 39.5,27.5C 38.5378,24.1152 37.2044,20.9485 35.5,18C 33.5273,17.5045 31.5273,17.3379 29.5,17.5C 29.5,21.1667 29.5,24.8333 29.5,28.5C 27.5,28.5 25.5,28.5 23.5,28.5C 23.5,19.1667 23.5,9.83333 23.5,0.5 Z M 29.5,4.5 C 32.6021,4.15402 35.4355,4.82069 38,6.5C 38.7429,8.44058 38.5762,10.2739 37.5,12C 34.9373,13.0793 32.2706,13.5793 29.5,13.5C 29.5,10.5 29.5,7.5 29.5,4.5 Z"/></g>
<g><path style="opacity:0.823" fill="#000000" d="M 82.5,0.5 C 84.7925,0.243582 86.9592,0.576916 89,1.5C 90.0105,8.56299 91.3438,15.563 93,22.5C 94.4619,15.524 95.7952,8.52402 97,1.5C 99.7947,0.217483 102.628,0.217483 105.5,1.5C 107.318,8.75667 108.818,16.09 110,23.5C 111.602,15.8898 112.769,8.22315 113.5,0.5C 115.5,0.5 117.5,0.5 119.5,0.5C 118.435,9.55952 116.935,18.5595 115,27.5C 111.943,28.4505 108.777,28.7839 105.5,28.5C 104.636,21.3008 103.136,14.3008 101,7.5C 99.6371,14.4794 98.4704,21.4794 97.5,28.5C 94.2234,28.7839 91.0567,28.4505 88,27.5C 86.2275,18.4704 84.3941,9.47039 82.5,0.5 Z"/></g>
<g><path style="opacity:0.802" fill="#000000" d="M 154.5,29.5 C 152.5,29.5 150.5,29.5 148.5,29.5C 146.424,28.5732 145.257,26.9065 145,24.5C 144.5,16.5069 144.334,8.50694 144.5,0.5C 146.5,0.5 148.5,0.5 150.5,0.5C 150.334,8.1739 150.5,15.8406 151,23.5C 155.031,24.0028 156.198,26.0028 154.5,29.5 Z"/></g>
<g><path style="opacity:0.809" fill="#000000" d="M 166.5,29.5 C 164.5,29.5 162.5,29.5 160.5,29.5C 159.878,28.3734 159.045,27.3734 158,26.5C 157.5,17.8397 157.334,9.17307 157.5,0.5C 159.5,0.5 161.5,0.5 163.5,0.5C 163.5,8.5 163.5,16.5 163.5,24.5C 164.833,24.5 166.167,24.5 167.5,24.5C 167.634,26.2915 167.301,27.9582 166.5,29.5 Z"/></g>
<g><path style="opacity:0.809" fill="#000000" d="M 130.5,29.5 C 128.833,29.5 127.167,29.5 125.5,29.5C 121.685,26.8926 120.518,23.226 122,18.5C 123.171,17.1068 124.671,16.2735 126.5,16C 129.226,15.8184 131.893,15.3184 134.5,14.5C 134.291,13.914 133.957,13.414 133.5,13C 130.24,12.2165 127.073,12.3832 124,13.5C 122.731,12.0953 122.231,10.4286 122.5,8.5C 125.884,8.66037 129.217,8.32704 132.5,7.5C 135.108,7.92284 137.442,8.92284 139.5,10.5C 140.457,16.439 140.79,22.439 140.5,28.5C 138.234,28.8588 136.401,28.1922 135,26.5C 133.591,27.7811 132.091,28.7811 130.5,29.5 Z M 128.5,19.5 C 130.5,19.5 132.5,19.5 134.5,19.5C 134.265,23.8035 131.931,25.4702 127.5,24.5C 127.366,22.7085 127.699,21.0418 128.5,19.5 Z"/></g>
</svg>
