<?xml version="1.0" encoding="UTF-8"?>
<!DOCTYPE svg PUBLIC "-//W3C//DTD SVG 1.1//EN" "http://www.w3.org/Graphics/SVG/1.1/DTD/svg11.dtd">
<svg xmlns="http://www.w3.org/2000/svg" version="1.1" width="133px" height="59px" style="shape-rendering:geometricPrecision; text-rendering:geometricPrecision; image-rendering:optimizeQuality; fill-rule:evenodd; clip-rule:evenodd" xmlns:xlink="http://www.w3.org/1999/xlink">
<g><path style="opacity:0.988" fill="#fafbfc" d="M -0.5,-0.5 C 43.8333,-0.5 88.1667,-0.5 132.5,-0.5C 132.5,19.1667 132.5,38.8333 132.5,58.5C 88.1667,58.5 43.8333,58.5 -0.5,58.5C -0.5,38.8333 -0.5,19.1667 -0.5,-0.5 Z"/></g>
<g><path style="opacity:1" fill="#be9f71" d="M 24.5,0.5 C 25.8734,0.343323 27.2068,0.50999 28.5,1C 31.7234,4.71567 34.7234,8.549 37.5,12.5C 34.5185,16.9797 31.0185,20.9797 27,24.5C 25.5272,24.0969 24.1939,23.4303 23,22.5C 20.2744,19.2828 17.7744,15.9495 15.5,12.5C 18.4911,8.50676 21.4911,4.50676 24.5,0.5 Z"/></g>
<g><path style="opacity:1" fill="#135095" d="M 16.5,20.5 C 15.0171,22.8438 13.6838,25.3438 12.5,28C 14.2037,30.9165 15.2037,34.0831 15.5,37.5C 13.9894,39.4411 11.9894,39.9411 9.5,39C 5.6166,36.1314 2.94993,32.4648 1.5,28C 1.66667,27.1667 1.83333,26.3333 2,25.5C 4.68325,22.9841 7.18325,20.3174 9.5,17.5C 12.769,16.068 15.1023,17.068 16.5,20.5 Z"/></g>
<g><path style="opacity:1" fill="#97b1cf" d="M 87.5,19.5 C 90.3035,18.3622 93.3035,18.1955 96.5,19C 97.7911,20.2917 97.7911,21.4583 96.5,22.5C 96.5858,21.5041 96.2524,20.6708 95.5,20C 92.854,19.5026 90.1873,19.3359 87.5,19.5 Z"/></g>
<g><path style="opacity:1" fill="#295c9c" d="M 48.5,33.5 C 46.7054,37.9786 43.5387,39.3119 39,37.5C 38.5172,36.552 38.3505,35.552 38.5,34.5C 40.7354,34.7947 42.7354,34.4614 44.5,33.5C 45.4861,29.03 45.8195,24.3633 45.5,19.5C 46.5,19.5 47.5,19.5 48.5,19.5C 48.5,24.1667 48.5,28.8333 48.5,33.5 Z"/></g>
<g><path style="opacity:1" fill="#a6bcd6" d="M 48.5,33.5 C 48.5,28.8333 48.5,24.1667 48.5,19.5C 47.5,19.5 46.5,19.5 45.5,19.5C 45.8195,24.3633 45.4861,29.03 44.5,33.5C 44.5,28.5 44.5,23.5 44.5,18.5C 46.1667,18.5 47.8333,18.5 49.5,18.5C 49.8205,23.6946 49.4872,28.6946 48.5,33.5 Z"/></g>
<g><path style="opacity:1" fill="#135095" d="M 56.5,19.5 C 57.9587,19.4326 59.2921,19.7659 60.5,20.5C 61.1667,22.8333 61.8333,25.1667 62.5,27.5C 62.4095,30.1522 63.0762,32.4855 64.5,34.5C 65.1667,34.5 65.5,34.8333 65.5,35.5C 65.5299,36.4972 65.0299,37.1639 64,37.5C 62.9889,36.9444 62.1556,36.2778 61.5,35.5C 58.0005,33.7638 55.0005,34.4304 52.5,37.5C 52.1667,37.1667 51.8333,36.8333 51.5,36.5C 53.7813,30.992 55.4479,25.3253 56.5,19.5 Z"/></g>
<g><path style="opacity:1" fill="#82a4c7" d="M 56.5,19.5 C 56.9169,18.8761 57.5836,18.5427 58.5,18.5C 59.7133,18.7472 60.38,19.4138 60.5,20.5C 59.2921,19.7659 57.9587,19.4326 56.5,19.5 Z"/></g>
<g><path style="opacity:1" fill="#396da6" d="M 68.5,18.5 C 69.791,18.2627 70.791,18.596 71.5,19.5C 69.5467,25.0738 68.88,31.0738 69.5,37.5C 68.5098,31.3554 68.1765,25.0221 68.5,18.5 Z"/></g>
<g><path style="opacity:1" fill="#0c4e94" d="M 71.5,19.5 C 72.4013,20.2905 73.0679,21.2905 73.5,22.5C 74.5729,24.6531 74.5729,26.6531 73.5,28.5C 73.44,27.9569 73.1067,27.6236 72.5,27.5C 72.1038,31.2634 71.1038,34.5968 69.5,37.5C 68.88,31.0738 69.5467,25.0738 71.5,19.5 Z"/></g>
<g><path style="opacity:1" fill="#044a92" d="M 79.5,19.5 C 81.4533,25.0738 82.12,31.0738 81.5,37.5C 80.5,37.5 79.5,37.5 78.5,37.5C 78.573,35.9731 77.9063,34.9731 76.5,34.5C 76.6716,33.5084 76.3382,32.8417 75.5,32.5C 75.5,31.8333 75.5,31.1667 75.5,30.5C 76.8333,30.5 78.1667,30.5 79.5,30.5C 79.5,26.8333 79.5,23.1667 79.5,19.5 Z"/></g>
<g><path style="opacity:1" fill="#769bc2" d="M 78.5,19.5 C 79.5676,18.5655 80.901,18.2322 82.5,18.5C 82.5,25.1667 82.5,31.8333 82.5,38.5C 80.901,38.7678 79.5676,38.4345 78.5,37.5C 79.5,37.5 80.5,37.5 81.5,37.5C 82.12,31.0738 81.4533,25.0738 79.5,19.5C 79.1667,19.5 78.8333,19.5 78.5,19.5 Z"/></g>
<g><path style="opacity:1" fill="#7b9ec4" d="M 104.5,22.5 C 107.028,21.8343 109.694,21.1676 112.5,20.5C 108.893,19.5108 105.226,19.1774 101.5,19.5C 101.5,25.5 101.5,31.5 101.5,37.5C 105.226,37.8226 108.893,37.4892 112.5,36.5C 109.694,35.8324 107.028,35.1657 104.5,34.5C 107.5,34.5 110.5,34.5 113.5,34.5C 113.5,35.8333 113.5,37.1667 113.5,38.5C 109.167,38.5 104.833,38.5 100.5,38.5C 100.5,31.8333 100.5,25.1667 100.5,18.5C 104.833,18.5 109.167,18.5 113.5,18.5C 113.5,19.8333 113.5,21.1667 113.5,22.5C 110.5,22.5 107.5,22.5 104.5,22.5 Z"/></g>
<g><path style="opacity:1" fill="#0b4e93" d="M 104.5,22.5 C 104.5,23.8333 104.5,25.1667 104.5,26.5C 106.369,27.1646 108.369,27.8313 110.5,28.5C 108.369,29.1687 106.369,29.8354 104.5,30.5C 104.5,31.8333 104.5,33.1667 104.5,34.5C 107.028,35.1657 109.694,35.8324 112.5,36.5C 108.893,37.4892 105.226,37.8226 101.5,37.5C 101.5,31.5 101.5,25.5 101.5,19.5C 105.226,19.1774 108.893,19.5108 112.5,20.5C 109.694,21.1676 107.028,21.8343 104.5,22.5 Z"/></g>
<g><path style="opacity:1" fill="#255a9b" d="M 129.5,19.5 C 127.586,22.6843 126.92,26.351 127.5,30.5C 125.901,30.2322 124.568,30.5655 123.5,31.5C 122.833,30.8333 122.167,30.1667 121.5,29.5C 121.631,28.6236 121.298,27.9569 120.5,27.5C 119.513,30.7683 119.18,34.1016 119.5,37.5C 118.5,37.5 117.5,37.5 116.5,37.5C 116.5,31.5 116.5,25.5 116.5,19.5C 117.5,19.5 118.5,19.5 119.5,19.5C 121.904,22.6311 124.071,25.9644 126,29.5C 126.499,25.8484 126.665,22.1817 126.5,18.5C 127.791,18.2627 128.791,18.596 129.5,19.5 Z"/></g>
<g><path style="opacity:1" fill="#024a91" d="M 129.5,19.5 C 129.5,25.5 129.5,31.5 129.5,37.5C 128.5,37.5 127.5,37.5 126.5,37.5C 126.573,35.9731 125.906,34.9731 124.5,34.5C 124.443,33.391 124.11,32.391 123.5,31.5C 124.568,30.5655 125.901,30.2322 127.5,30.5C 126.92,26.351 127.586,22.6843 129.5,19.5 Z"/></g>
<g><path style="opacity:1" fill="#7d9ec3" d="M 56.5,19.5 C 55.4479,25.3253 53.7813,30.992 51.5,36.5C 51.8333,36.8333 52.1667,37.1667 52.5,37.5C 55.0005,34.4304 58.0005,33.7638 61.5,35.5C 59.4727,35.3379 57.4727,35.5045 55.5,36C 54.3826,37.8921 52.7159,38.7254 50.5,38.5C 51.7238,31.8327 53.7238,25.4993 56.5,19.5 Z"/></g>
<g><path style="opacity:1" fill="#396da5" d="M 16.5,20.5 C 20.7957,22.5964 22.629,25.9298 22,30.5C 19.8169,32.9071 17.6503,35.2404 15.5,37.5C 15.2037,34.0831 14.2037,30.9165 12.5,28C 13.6838,25.3438 15.0171,22.8438 16.5,20.5 Z"/></g>
<g><path style="opacity:1" fill="#5483b3" d="M 104.5,26.5 C 106.833,26.5 109.167,26.5 111.5,26.5C 111.5,27.8333 111.5,29.1667 111.5,30.5C 109.167,30.5 106.833,30.5 104.5,30.5C 106.369,29.8354 108.369,29.1687 110.5,28.5C 108.369,27.8313 106.369,27.1646 104.5,26.5 Z"/></g>
<g><path style="opacity:1" fill="#3d6ca6" d="M 78.5,19.5 C 78.8333,19.5 79.1667,19.5 79.5,19.5C 79.5,23.1667 79.5,26.8333 79.5,30.5C 78.1667,30.5 76.8333,30.5 75.5,30.5C 74.8333,30.1667 74.1667,29.8333 73.5,29.5C 73.5,29.1667 73.5,28.8333 73.5,28.5C 74.5729,26.6531 74.5729,24.6531 73.5,22.5C 75.4514,24.48 76.9514,26.8133 78,29.5C 78.4983,26.1832 78.665,22.8499 78.5,19.5 Z"/></g>
<g><path style="opacity:1" fill="#2b5d9d" d="M 87.5,19.5 C 90.1873,19.3359 92.854,19.5026 95.5,20C 96.2524,20.6708 96.5858,21.5041 96.5,22.5C 93.8333,22.5 91.1667,22.5 88.5,22.5C 88.33,23.8221 88.6634,24.9887 89.5,26C 95.774,26.2677 98.274,29.4344 97,35.5C 93.0073,39.3782 89.1739,39.3782 85.5,35.5C 88.0865,34.52 90.7531,34.1866 93.5,34.5C 93.5,33.1667 93.5,31.8333 93.5,30.5C 85.4901,30.0941 83.4901,26.4274 87.5,19.5 Z"/></g>
<g><path style="opacity:1" fill="#9cb6d2" d="M 68.5,18.5 C 68.1765,25.0221 68.5098,31.3554 69.5,37.5C 71.1038,34.5968 72.1038,31.2634 72.5,27.5C 73.1067,27.6236 73.44,27.9569 73.5,28.5C 73.5,28.8333 73.5,29.1667 73.5,29.5C 72.5233,32.2869 72.19,35.2869 72.5,38.5C 70.8333,38.5 69.1667,38.5 67.5,38.5C 67.176,31.6457 67.5093,24.979 68.5,18.5 Z"/></g>
<g><path style="opacity:1" fill="#9ab4d1" d="M 119.5,19.5 C 118.5,19.5 117.5,19.5 116.5,19.5C 116.5,25.5 116.5,31.5 116.5,37.5C 117.5,37.5 118.5,37.5 119.5,37.5C 119.18,34.1016 119.513,30.7683 120.5,27.5C 121.298,27.9569 121.631,28.6236 121.5,29.5C 120.523,32.2869 120.19,35.2869 120.5,38.5C 118.833,38.5 117.167,38.5 115.5,38.5C 115.5,31.8333 115.5,25.1667 115.5,18.5C 117.099,18.2322 118.432,18.5655 119.5,19.5 Z"/></g>
<g><path style="opacity:1" fill="#cfdae8" d="M 56.5,29.5 C 56.5,29.1667 56.5,28.8333 56.5,28.5C 58.8543,27.5065 59.8543,28.5065 59.5,31.5C 57.8212,31.7148 56.8212,31.0481 56.5,29.5 Z"/></g>
<g><path style="opacity:1" fill="#6c92bc" d="M 56.5,29.5 C 56.8212,31.0481 57.8212,31.7148 59.5,31.5C 59.8543,28.5065 58.8543,27.5065 56.5,28.5C 56.4148,27.0047 57.0815,26.0047 58.5,25.5C 60.1713,27.5098 60.838,29.8431 60.5,32.5C 58.8333,32.5 57.1667,32.5 55.5,32.5C 55.2627,31.209 55.596,30.209 56.5,29.5 Z"/></g>
<g><path style="opacity:1" fill="#5782b2" d="M 62.5,27.5 C 63.9238,29.5145 64.5905,31.8478 64.5,34.5C 63.0762,32.4855 62.4095,30.1522 62.5,27.5 Z"/></g>
<g><path style="opacity:1" fill="#97b3d0" d="M 73.5,29.5 C 74.1667,29.8333 74.8333,30.1667 75.5,30.5C 75.5,31.1667 75.5,31.8333 75.5,32.5C 74.0937,32.0269 73.427,31.0269 73.5,29.5 Z"/></g>
<g><path style="opacity:1" fill="#99b2d0" d="M 76.5,34.5 C 77.9063,34.9731 78.573,35.9731 78.5,37.5C 77.0937,37.0269 76.427,36.0269 76.5,34.5 Z"/></g>
<g><path style="opacity:1" fill="#90accc" d="M 124.5,34.5 C 125.906,34.9731 126.573,35.9731 126.5,37.5C 125.094,37.0269 124.427,36.0269 124.5,34.5 Z"/></g>
<g><path style="opacity:1" fill="#bacbde" d="M 61.5,35.5 C 62.1556,36.2778 62.9889,36.9444 64,37.5C 65.0299,37.1639 65.5299,36.4972 65.5,35.5C 66.4345,36.5676 66.7678,37.901 66.5,39.5C 64.8333,39.5 63.1667,39.5 61.5,39.5C 61.5,38.1667 61.5,36.8333 61.5,35.5 Z"/></g>
<g><path style="opacity:1" fill="#bfa072" d="M 25.5,32.5 C 27.2554,33.0722 28.9221,33.9055 30.5,35C 33.0599,38.0511 35.3932,41.2178 37.5,44.5C 34.5439,49.124 30.8772,53.124 26.5,56.5C 22.1228,53.124 18.4561,49.124 15.5,44.5C 17.8983,39.6925 21.2317,35.6925 25.5,32.5 Z"/></g>
<g><path style="opacity:1" fill="#b4b6b8" d="M 120.5,44.5 C 121.873,44.3433 123.207,44.51 124.5,45C 123.134,46.5998 122.134,48.4332 121.5,50.5C 120.534,48.604 120.201,46.604 120.5,44.5 Z"/></g>
<g><path style="opacity:1" fill="#babbbd" d="M 64.5,44.5 C 66.1667,44.5 67.8333,44.5 69.5,44.5C 69.5,46.5 69.5,48.5 69.5,50.5C 67.8333,50.5 66.1667,50.5 64.5,50.5C 64.5,48.5 64.5,46.5 64.5,44.5 Z"/></g>
<g><path style="opacity:1" fill="#b8b9bb" d="M 79.5,44.5 C 77.1027,46.4564 77.1027,48.2898 79.5,50C 76.5096,50.8469 75.1762,49.6802 75.5,46.5C 74.5,46.5 73.5,46.5 72.5,46.5C 72.3601,48.1238 73.0267,49.2904 74.5,50C 73.552,50.4828 72.552,50.6495 71.5,50.5C 70.2475,48.6612 70.2475,46.8278 71.5,45C 74.146,44.5026 76.8127,44.3359 79.5,44.5 Z"/></g>
<g><path style="opacity:1" fill="#b0b2b4" d="M 96.5,50.5 C 93.4017,50.5875 93.0684,50.0875 95.5,49C 94.7562,47.9614 93.7562,47.4614 92.5,47.5C 92.7218,44.9236 94.0551,44.0902 96.5,45C 95.8333,45.3333 95.1667,45.6667 94.5,46C 95.7282,46.779 96.7282,47.779 97.5,49C 97.4301,49.7648 97.0967,50.2648 96.5,50.5 Z"/></g>
<g><path style="opacity:1" fill="#b9babc" d="M 112.5,50.5 C 109.09,50.6162 107.756,48.9496 108.5,45.5C 111.989,46.478 115.489,46.478 119,45.5C 119.72,47.1124 119.554,48.6124 118.5,50C 116.276,50.0395 114.276,50.2062 112.5,50.5 Z"/></g>
<g><path style="opacity:1" fill="#b3b5b7" d="M 126.5,44.5 C 129.598,44.4125 129.932,44.9125 127.5,46C 129.037,47.1096 129.703,48.6096 129.5,50.5C 128.167,50.5 126.833,50.5 125.5,50.5C 125.325,48.3792 125.659,46.3792 126.5,44.5 Z"/></g>
<g><path style="opacity:1" fill="#c6c7c8" d="M 91.5,47.5 C 91.5,48.5 91.5,49.5 91.5,50.5C 88.1667,50.5 84.8333,50.5 81.5,50.5C 81.5,48.8333 81.5,47.1667 81.5,45.5C 84.6881,45.6473 88.0214,45.314 91.5,44.5C 91.5,45.5 91.5,46.5 91.5,47.5 Z"/></g>
<g><path style="opacity:1" fill="#cfd0d1" d="M 108.5,45.5 C 107.756,48.9496 109.09,50.6162 112.5,50.5C 110.372,51.6291 108.039,51.7958 105.5,51C 104.773,49.6012 104.273,48.1012 104,46.5C 103.781,47.938 103.281,49.2713 102.5,50.5C 101.516,47.5719 101.183,44.5719 101.5,41.5C 105.279,40.6799 107.612,42.0133 108.5,45.5 Z"/></g>
<g><path style="opacity:1" fill="#e2e3e3" d="M 79.5,44.5 C 80.1667,44.8333 80.8333,45.1667 81.5,45.5C 81.5,47.1667 81.5,48.8333 81.5,50.5C 84.8333,50.5 88.1667,50.5 91.5,50.5C 91.5,49.5 91.5,48.5 91.5,47.5C 91.8333,47.5 92.1667,47.5 92.5,47.5C 93.7562,47.4614 94.7562,47.9614 95.5,49C 93.0684,50.0875 93.4017,50.5875 96.5,50.5C 88.1667,51.8333 79.8333,51.8333 71.5,50.5C 72.552,50.6495 73.552,50.4828 74.5,50C 73.0267,49.2904 72.3601,48.1238 72.5,46.5C 73.5,46.5 74.5,46.5 75.5,46.5C 75.1762,49.6802 76.5096,50.8469 79.5,50C 77.1027,48.2898 77.1027,46.4564 79.5,44.5 Z"/></g>
</svg>
