<?xml version="1.0" standalone="no"?>
<!DOCTYPE svg PUBLIC "-//W3C//DTD SVG 20010904//EN"
 "http://www.w3.org/TR/2001/REC-SVG-20010904/DTD/svg10.dtd">
<svg version="1.0" xmlns="http://www.w3.org/2000/svg"
 width="125.000000pt" height="50.000000pt" viewBox="0 0 125.000000 50.000000"
 preserveAspectRatio="xMidYMid meet">

<g transform="translate(0.000000,50.000000) scale(0.100000,-0.100000)"
fill="#000000" stroke="none">
<path d="M867 486 c-97 -35 -149 -93 -169 -189 -23 -110 28 -224 121 -274 57
-30 166 -32 226 -4 66 30 113 96 129 184 l7 37 -146 0 -145 0 0 -25 0 -25 110
0 c121 0 124 -2 90 -58 -52 -85 -191 -106 -274 -41 -71 56 -89 182 -37 259 16
24 46 54 67 67 65 39 172 28 213 -21 14 -17 81 -22 81 -6 0 23 -73 80 -122 95
-63 18 -101 18 -151 1z"/>
<path d="M38 465 c-5 -24 -3 -25 43 -25 l49 0 0 -215 0 -215 30 0 30 0 0 215
0 215 51 0 c47 0 50 2 47 23 -3 21 -7 22 -124 25 l-122 3 -4 -26z"/>
<path d="M429 463 c-28 -74 -172 -439 -176 -445 -2 -5 9 -8 26 -8 27 0 31 5
57 70 l27 71 106 -3 106 -3 25 -67 c22 -62 27 -68 53 -68 24 0 28 3 23 18 -4
9 -45 117 -93 240 -85 217 -87 222 -115 222 -22 0 -31 -6 -39 -27z m81 -145
c19 -51 37 -96 38 -100 2 -4 -33 -8 -77 -8 -45 0 -81 3 -81 8 0 4 13 41 28 82
16 41 32 83 35 93 12 32 22 18 57 -75z"/>
</g>
</svg>
