<svg width="252" height="64" viewBox="0 0 252 64" fill="none" xmlns="http://www.w3.org/2000/svg">
<g id="Group">
<path id="&#195;&#144;&#194;&#159;&#195;&#144;&#194;&#181;&#195;&#145;&#194;&#128;&#195;&#144;&#194;&#181;&#195;&#144;&#194;&#179;&#195;&#144;&#194;&#190;&#195;&#145;&#194;&#128;&#195;&#144;&#194;&#190;&#195;&#144;&#194;&#180;&#195;&#144;&#194;&#186;&#195;&#144;&#194;&#184; &#195;&#144;&#194;&#184; &#195;&#144;&#194;&#180;&#195;&#144;&#194;&#178;&#195;&#144;&#194;&#181;&#195;&#145;&#194;&#128;&#195;&#144;&#194;&#184;" d="M104.479 46.5086V55.7689H106.512V44.8789H97.7439V55.7689H99.7767V46.5086H104.479ZM111.998 55.9212C114.046 55.9212 115.381 55.0226 115.639 53.332H113.864C113.728 54.1088 113.151 54.5504 112.044 54.5504C110.663 54.5504 109.92 53.7128 109.859 52.1897H115.67V51.6566C115.67 48.8084 113.895 47.6357 111.923 47.6357C109.662 47.6357 107.978 49.2806 107.978 51.748V51.8698C107.978 54.3677 109.647 55.9212 111.998 55.9212ZM113.849 50.956H109.89C110.072 49.7223 110.815 48.976 111.923 48.976C113.076 48.976 113.743 49.57 113.849 50.956ZM117.056 47.8032V58.4952H118.892V54.52C119.317 55.2968 120.212 55.9212 121.486 55.9212C123.534 55.9212 125.005 54.3677 125.005 51.8089V51.6871C125.005 49.1283 123.473 47.6357 121.486 47.6357C120.318 47.6357 119.332 48.3211 118.892 49.0826V47.8032H117.056ZM121.031 54.4591C119.696 54.4591 118.831 53.6214 118.831 51.8394V51.7175C118.831 49.9355 119.741 49.0826 121.016 49.0826C122.214 49.0826 123.124 49.9508 123.124 51.7175V51.8394C123.124 53.5604 122.381 54.4591 121.031 54.4591ZM129.893 55.9212C131.94 55.9212 133.275 55.0226 133.533 53.332H131.758C131.622 54.1088 131.045 54.5504 129.938 54.5504C128.558 54.5504 127.814 53.7128 127.754 52.1897H133.564V51.6566C133.564 48.8084 131.789 47.6357 129.817 47.6357C127.556 47.6357 125.873 49.2806 125.873 51.748V51.8698C125.873 54.3677 127.541 55.9212 129.893 55.9212ZM131.743 50.956H127.784C127.966 49.7223 128.709 48.976 129.817 48.976C130.97 48.976 131.637 49.57 131.743 50.956ZM136.786 49.174H140.245V47.8032H134.95V55.7689H136.786V49.174ZM144.78 54.4895C143.385 54.4895 142.581 53.4843 142.581 51.8394V51.7175C142.581 50.0726 143.4 49.0826 144.78 49.0826C146.161 49.0826 146.965 50.0878 146.965 51.7328V51.8394C146.965 53.4843 146.161 54.4895 144.78 54.4895ZM144.765 55.9212C147.101 55.9212 148.846 54.3068 148.846 51.8241V51.7023C148.846 49.2654 147.086 47.6357 144.78 47.6357C142.444 47.6357 140.7 49.2806 140.7 51.748V51.8698C140.7 54.3068 142.414 55.9212 144.765 55.9212ZM150.25 47.8032V58.4952H152.086V54.52C152.511 55.2968 153.406 55.9212 154.68 55.9212C156.728 55.9212 158.199 54.3677 158.199 51.8089V51.6871C158.199 49.1283 156.667 47.6357 154.68 47.6357C153.512 47.6357 152.526 48.3211 152.086 49.0826V47.8032H150.25ZM154.225 54.4591C152.89 54.4591 152.025 53.6214 152.025 51.8394V51.7175C152.025 49.9355 152.935 49.0826 154.21 49.0826C155.408 49.0826 156.318 49.9508 156.318 51.7175V51.8394C156.318 53.5604 155.575 54.4591 154.225 54.4591ZM163.147 54.4895C161.752 54.4895 160.948 53.4843 160.948 51.8394V51.7175C160.948 50.0726 161.767 49.0826 163.147 49.0826C164.528 49.0826 165.332 50.0878 165.332 51.7328V51.8394C165.332 53.4843 164.528 54.4895 163.147 54.4895ZM163.132 55.9212C165.468 55.9212 167.213 54.3068 167.213 51.8241V51.7023C167.213 49.2654 165.453 47.6357 163.147 47.6357C160.811 47.6357 159.067 49.2806 159.067 51.748V51.8698C159.067 54.3068 160.781 55.9212 163.132 55.9212ZM170.52 52.3877C170.626 51.4129 170.671 50.1335 170.717 49.1588H173.129V54.3981H170.05C170.292 53.9108 170.414 53.2863 170.52 52.3877ZM169.063 57.7032L169.124 55.7689H174.479L174.54 57.7032H176.102V54.3981H174.949V47.8032H169.124C169.124 48.8541 169.048 50.9103 168.881 52.2658C168.745 53.4234 168.563 54.2001 168.002 54.3981H167.501V57.7032H169.063ZM179.016 51.8698L181.989 55.7689H184.113L180.776 51.4891L183.855 47.8032H181.853L179.016 51.3368V47.8032H177.181V55.7689H179.016V51.8698ZM185.119 55.7689H186.955L190.383 50.1335V55.7689H192.204V47.8032H190.383L186.955 53.4386V47.8032H185.119V55.7689ZM197.488 55.7689H199.323L202.752 50.1335V55.7689H204.572V47.8032H202.752L199.323 53.4386V47.8032H197.488V55.7689ZM211.979 52.3877C212.085 51.4129 212.131 50.1335 212.176 49.1588H214.588V54.3981H211.509C211.751 53.9108 211.873 53.2863 211.979 52.3877ZM210.523 57.7032L210.583 55.7689H215.938L215.999 57.7032H217.561V54.3981H216.408V47.8032H210.583C210.583 48.8541 210.507 50.9103 210.341 52.2658C210.204 53.4234 210.022 54.2001 209.461 54.3981H208.96V57.7032H210.523ZM218.64 47.8032V55.7689H222.129C224.025 55.7689 225.087 54.9464 225.087 53.4234V53.3777C225.087 52.342 224.419 51.8089 223.327 51.5804C224.298 51.352 224.738 50.6818 224.738 49.8289V49.7984C224.738 48.3363 223.494 47.8032 221.841 47.8032H218.64ZM220.475 49.0369H221.522C222.387 49.0369 222.857 49.2501 222.857 49.9812V50.0117C222.857 50.7428 222.478 51.0626 221.583 51.0626H220.475V49.0369ZM220.475 52.2963H221.841C222.751 52.2963 223.206 52.6618 223.206 53.4081V53.4386C223.206 54.2154 222.736 54.5352 221.78 54.5352H220.475V52.2963ZM230.009 55.9212C232.057 55.9212 233.392 55.0226 233.65 53.332H231.875C231.739 54.1088 231.162 54.5504 230.055 54.5504C228.675 54.5504 227.931 53.7128 227.871 52.1897H233.681V51.6566C233.681 48.8084 231.906 47.6357 229.934 47.6357C227.673 47.6357 225.989 49.2806 225.989 51.748V51.8698C225.989 54.3677 227.658 55.9212 230.009 55.9212ZM231.86 50.956H227.901C228.083 49.7223 228.826 48.976 229.934 48.976C231.087 48.976 231.754 49.57 231.86 50.956ZM235.066 47.8032V58.4952H236.902V54.52C237.326 55.2968 238.221 55.9212 239.496 55.9212C241.544 55.9212 243.015 54.3677 243.015 51.8089V51.6871C243.015 49.1283 241.483 47.6357 239.496 47.6357C238.328 47.6357 237.342 48.3211 236.902 49.0826V47.8032H235.066ZM239.041 54.4591C237.706 54.4591 236.841 53.6214 236.841 51.8394V51.7175C236.841 49.9355 237.751 49.0826 239.025 49.0826C240.224 49.0826 241.134 49.9508 241.134 51.7175V51.8394C241.134 53.5604 240.391 54.4591 239.041 54.4591ZM244.413 55.7689H246.249L249.677 50.1335V55.7689H251.498V47.8032H249.677L246.249 53.4386V47.8032H244.413V55.7689Z" fill="#5E5E5E"/>
<g id="&#195;&#144;&#194;&#187;&#195;&#144;&#194;&#190;&#195;&#144;&#194;&#179;&#195;&#144;&#194;&#190;_2">
<g id="logo">
<g id="Group_2">
<g id="Group_3">
<path id="Vector" d="M120.784 24.3272C120.784 25.6652 121.303 26.8546 122.339 27.8953L120.71 29.2333C119.97 28.5643 119.452 27.8953 119.156 27.2263C118.786 26.4829 118.638 25.5166 118.638 24.4016V5H120.71V24.3272H120.784Z" fill="#050303"/>
<path id="Vector_2" d="M138.332 27.6721C136.407 28.5642 134.186 29.0102 131.742 29.0102C129.373 29.0102 127.67 28.6385 126.634 27.8209C125.597 27.0031 125.079 25.5165 125.079 23.4351C125.079 21.2793 125.671 19.7926 126.929 18.9006C127.448 18.529 128.188 18.3059 129.003 18.1572C129.669 18.0086 130.557 17.9342 131.594 17.9342C133.074 17.9342 134.629 18.0828 136.259 18.4546C136.259 16.4475 135.888 15.1095 135.222 14.4405C134.629 13.8458 133.297 13.5484 131.372 13.5484C130.557 13.5484 129.743 13.6228 128.928 13.7715C128.041 13.9201 127.225 14.0688 126.634 14.3661L126.115 12.4334C126.929 12.2104 127.67 11.9874 128.484 11.9131C129.521 11.7644 130.557 11.6157 131.594 11.6157C134.038 11.6157 135.814 12.0617 136.777 12.9538C137.887 13.9201 138.405 15.5555 138.405 18.0086V27.6721H138.332ZM136.259 20.313C135.148 20.0156 133.667 19.867 131.817 19.867C130.114 19.867 128.928 20.0156 128.411 20.3873C127.743 20.8333 127.448 21.7997 127.448 23.2121C127.448 24.8475 127.743 25.8881 128.336 26.3341C128.855 26.7801 130.039 27.0031 131.817 27.0031C133.371 27.0031 134.852 26.7801 136.259 26.2597V20.313Z" fill="#050303"/>
<path id="Vector_3" d="M153.509 14.5148C151.954 13.9201 150.4 13.6228 148.845 13.6228C147.364 13.6228 146.253 13.7715 145.662 14.1431C144.995 14.5891 144.625 15.4068 144.625 16.5962C144.625 18.0828 145.957 18.975 148.697 19.1236C152.769 19.421 154.767 20.982 154.767 23.8811C154.767 25.8137 154.249 27.1519 153.214 27.8951C152.25 28.6385 150.622 29.0102 148.401 29.0102C147.512 29.0102 146.549 28.9359 145.439 28.7872C144.255 28.6385 143.293 28.4155 142.477 28.1181L143.143 26.1111C144.477 26.7059 146.253 27.0775 148.401 27.0775C149.881 27.0775 150.843 26.9289 151.436 26.5571C152.102 26.1111 152.473 25.2935 152.473 24.0297C152.473 23.1377 152.177 22.4687 151.659 22.0227C151.066 21.5767 150.029 21.2793 148.474 21.1306C146.401 20.982 144.846 20.6103 143.959 20.0156C142.922 19.3466 142.404 18.2316 142.404 16.7449C142.404 14.8865 142.922 13.5484 144.032 12.7308C145.069 11.9874 146.698 11.6157 148.845 11.6157C150.4 11.6157 152.25 11.9131 154.249 12.4334L153.509 14.5148Z" fill="#050303"/>
<path id="Vector_4" d="M169.132 14.5148C167.577 13.9201 166.022 13.6228 164.467 13.6228C162.985 13.6228 161.876 13.7715 161.283 14.1431C160.616 14.5891 160.246 15.4068 160.246 16.5962C160.246 18.0828 161.58 18.975 164.319 19.1236C168.391 19.421 170.39 20.982 170.39 23.8811C170.39 25.8137 169.871 27.1519 168.835 27.8951C167.873 28.6385 166.243 29.0102 164.022 29.0102C163.135 29.0102 162.171 28.9359 161.061 28.7872C159.877 28.6385 158.914 28.4155 158.099 28.1181L158.766 26.1111C160.098 26.7059 161.875 27.0775 164.022 27.0775C165.504 27.0775 166.466 26.9289 167.059 26.5571C167.725 26.1111 168.095 25.2935 168.095 24.0297C168.095 23.1377 167.798 22.4687 167.28 22.0227C166.688 21.5767 165.652 21.2793 164.097 21.1306C162.023 20.982 160.469 20.6103 159.58 20.0156C158.543 19.3466 158.025 18.2316 158.025 16.7449C158.025 14.8865 158.543 13.5484 159.654 12.7308C160.691 11.9874 162.246 11.6157 164.467 11.6157C166.022 11.6157 167.873 11.9131 169.871 12.4334L169.132 14.5148Z" fill="#050303"/>
<path id="Vector_5" d="M178.164 22.9893C178.164 25.6653 179.201 27.0033 181.199 27.0033C182.384 27.0033 183.421 26.8547 184.309 26.483L184.828 28.3414C183.643 28.7874 182.459 28.9361 181.199 28.9361C179.274 28.9361 177.942 28.5644 177.201 27.7467C176.387 26.929 176.016 25.2937 176.016 22.9893V13.9947H173.129V12.0619H176.016V8.64252L178.164 7.75049V12.0619H184.235V13.9947H178.164V22.9893Z" fill="#050303"/>
<path id="Vector_6" d="M196.525 11.6901V13.9201L195.785 13.8458C195.488 13.8458 195.119 13.8458 194.896 13.8458C193.564 13.8458 192.527 13.9945 191.713 14.3661C190.75 14.7378 190.306 15.3325 190.306 16.0015V28.5642H188.158V12.0617H190.306V13.2511C190.677 12.8051 191.195 12.4334 191.934 12.1361C192.823 11.7644 193.785 11.6157 194.896 11.6157C195.488 11.6157 196.006 11.6157 196.525 11.6901Z" fill="#050303"/>
<path id="Vector_7" d="M200.819 27.1519C199.634 25.8137 198.968 23.5094 198.968 20.2386C198.968 16.9679 199.561 14.7378 200.819 13.3998C201.93 12.2104 203.781 11.6157 206.446 11.6157C209.112 11.6157 210.963 12.2104 212.074 13.3998C213.258 14.6635 213.924 16.9679 213.924 20.2386C213.924 23.5094 213.332 25.8137 212.074 27.1519C210.963 28.4155 209.037 29.0102 206.446 29.0102C203.781 29.0102 201.856 28.3412 200.819 27.1519ZM202.374 14.8122C201.634 15.7042 201.264 17.5626 201.264 20.313C201.264 22.9147 201.634 24.7731 202.374 25.6651C203.115 26.5571 204.447 27.0031 206.372 27.0031C208.371 27.0031 209.703 26.5571 210.37 25.6651C211.11 24.6987 211.481 22.9147 211.481 20.313C211.481 17.5626 211.11 15.7785 210.37 14.8122C209.703 13.9945 208.371 13.5484 206.372 13.5484C204.447 13.5484 203.115 13.9945 202.374 14.8122Z" fill="#050303"/>
<path id="Vector_8" d="M220.217 28.5642H218.144V12.9538C220.07 12.0617 222.291 11.6157 224.734 11.6157C227.177 11.6157 228.806 12.1361 229.768 13.1768C230.731 14.2918 231.248 16.2989 231.248 19.2722V28.5642H229.102V19.644C229.102 17.1909 228.806 15.5555 228.14 14.7378C227.547 13.9945 226.288 13.6228 224.364 13.6228C222.809 13.6228 221.402 13.7715 220.217 14.1431V28.5642Z" fill="#050303"/>
<path id="Vector_9" d="M249.462 27.3007C249.462 30.1998 248.722 32.2812 247.316 33.4706C246.057 34.5856 244.058 35.106 241.319 35.106C239.319 35.106 237.543 34.8086 236.061 34.1396L236.654 32.1326C237.172 32.4298 237.986 32.6528 238.948 32.8016C239.912 32.9502 240.652 33.0246 241.319 33.0246C243.391 33.0246 244.872 32.6528 245.761 31.9096C246.798 31.0918 247.316 29.6051 247.316 27.5237C246.798 27.8954 246.279 28.1927 245.613 28.4157C244.798 28.7131 243.836 28.8618 242.799 28.8618C240.134 28.8618 238.282 28.2671 237.172 27.0033C235.988 25.6653 235.322 23.3609 235.322 20.0902C235.322 16.8194 235.913 14.5894 237.172 13.2513C238.282 12.062 240.134 11.4673 242.799 11.4673C245.316 11.4673 247.537 11.9133 249.388 12.8053V27.3007H249.462ZM238.875 14.8124C238.134 15.7044 237.764 17.5628 237.764 20.2388C237.764 22.8406 238.134 24.6247 238.875 25.5911C239.616 26.4831 240.948 26.9291 242.874 26.9291C244.131 26.9291 245.243 26.7061 246.057 26.3343C246.945 25.8883 247.389 25.2937 247.389 24.5503V14.292C246.13 13.846 244.65 13.623 242.874 13.623C240.874 13.623 239.541 14.069 238.875 14.8124Z" fill="#050303"/>
<path id="Vector_10" d="M111.456 18.2317H105.533V16.3733H113.751V28.267C112.936 28.5643 111.825 28.713 110.419 28.8617C109.235 28.936 108.05 29.0103 106.865 29.0103C103.237 29.0103 100.646 28.1927 99.0914 26.483C97.3884 24.6246 96.5 21.5024 96.5 16.968C96.5 12.5079 97.3884 9.38581 99.0914 7.6761C100.572 6.11505 103.237 5.29736 106.865 5.29736C109.086 5.29736 111.234 5.59471 113.232 6.18939L112.493 8.27077C111.011 7.6761 109.16 7.45308 106.939 7.45308C105.385 7.45308 104.2 7.52742 103.311 7.75043C102.275 8.04777 101.461 8.49379 100.868 9.08846C99.6836 10.4265 99.0914 13.0282 99.0914 17.0424C99.0914 21.0564 99.6836 23.7326 100.868 25.1449C101.905 26.4086 103.978 27.0033 106.939 27.0033C107.754 27.0033 108.642 26.929 109.531 26.7803C110.345 26.706 110.937 26.5573 111.53 26.4086V18.2317H111.456Z" fill="#050303"/>
</g>
<path id="Vector_11" d="M32.8553 22.4194L44.02 33.6291H55.2989L41.8554 47.2409L16.2219 21.6187L26.7032 11.2097H72.7297L61.5648 0H53.3621H22.0322L0.5 21.6187L13.6017 34.773L41.8554 63.1404L82.2995 22.4194H68.6283H32.8553Z" fill="#E01410"/>
</g>
</g>
</g>
</g>
</svg>
