<?xml version="1.0" encoding="UTF-8"?>
<!DOCTYPE svg PUBLIC "-//W3C//DTD SVG 1.1//EN" "http://www.w3.org/Graphics/SVG/1.1/DTD/svg11.dtd">
<svg xmlns="http://www.w3.org/2000/svg" version="1.1" width="190px" height="64px" style="shape-rendering:geometricPrecision; text-rendering:geometricPrecision; image-rendering:optimizeQuality; fill-rule:evenodd; clip-rule:evenodd" xmlns:xlink="http://www.w3.org/1999/xlink">
<g><path style="opacity:0.507" fill="#f4f6f9" d="M 189.5,44.5 C 189.5,45.5 189.5,46.5 189.5,47.5C 185.55,49.5987 182.55,48.7654 180.5,45C 174.395,42.0527 170.728,43.886 169.5,50.5C 170.408,57.6005 174.075,59.7672 180.5,57C 181.313,55.197 182.48,53.697 184,52.5C 185.766,53.2335 187.599,53.5668 189.5,53.5C 189.5,54.5 189.5,55.5 189.5,56.5C 187.833,59.5 185.5,61.8333 182.5,63.5C 178.167,63.5 173.833,63.5 169.5,63.5C 167.897,62.4036 166.397,61.0703 165,59.5C 164.51,60.7932 164.343,62.1266 164.5,63.5C 158.167,63.5 151.833,63.5 145.5,63.5C 145.662,61.4727 145.495,59.4727 145,57.5C 144.436,59.8867 143.27,61.8867 141.5,63.5C 134.833,63.5 128.167,63.5 121.5,63.5C 120.227,61.2872 119.227,58.9538 118.5,56.5C 118.833,56.5 119.167,56.5 119.5,56.5C 120.725,57.937 121.725,59.6036 122.5,61.5C 123.723,62.6139 125.056,62.7805 126.5,62C 124.281,57.7253 121.948,53.5586 119.5,49.5C 119.5,48.8333 119.5,48.1667 119.5,47.5C 121.558,49.9266 123.391,52.5932 125,55.5C 125.499,49.5092 125.666,43.5092 125.5,37.5C 131.167,37.5 136.833,37.5 142.5,37.5C 142.5,39.5 142.5,41.5 142.5,43.5C 139.167,43.5 135.833,43.5 132.5,43.5C 132.5,44.8333 132.5,46.1667 132.5,47.5C 136.839,46.8461 140.673,47.8461 144,50.5C 144.333,51.5 144.667,52.5 145,53.5C 145.499,48.1771 145.666,42.8437 145.5,37.5C 151.5,37.5 157.5,37.5 163.5,37.5C 163.5,39.5 163.5,41.5 163.5,43.5C 159.833,43.5 156.167,43.5 152.5,43.5C 152.5,44.8333 152.5,46.1667 152.5,47.5C 155.5,47.5 158.5,47.5 161.5,47.5C 161.5,49.5 161.5,51.5 161.5,53.5C 158.5,53.5 155.5,53.5 152.5,53.5C 152.5,55.1667 152.5,56.8333 152.5,58.5C 156.514,58.6655 160.514,58.4988 164.5,58C 160.677,49.1347 163.01,42.468 171.5,38C 178.998,36.3303 184.998,38.4969 189.5,44.5 Z M 132.5,53.5 C 134.5,53.5 136.5,53.5 138.5,53.5C 138.56,57.4851 136.56,59.1518 132.5,58.5C 132.5,56.8333 132.5,55.1667 132.5,53.5 Z"/></g>
<g><path style="opacity:1" fill="#205290" d="M 140.5,39.5 C 137.452,41.1187 134.119,42.1187 130.5,42.5C 130.5,44.5 130.5,46.5 130.5,48.5C 135.39,47.7841 139.556,49.1174 143,52.5C 144.291,56.672 143.124,59.8387 139.5,62C 135.514,62.4988 131.514,62.6655 127.5,62.5C 127.5,54.8333 127.5,47.1667 127.5,39.5C 131.833,39.5 136.167,39.5 140.5,39.5 Z M 132.5,53.5 C 132.5,55.1667 132.5,56.8333 132.5,58.5C 136.56,59.1518 138.56,57.4851 138.5,53.5C 136.5,53.5 134.5,53.5 132.5,53.5 Z"/></g>
<g><path style="opacity:1" fill="#0f4a8b" d="M 161.5,39.5 C 158.109,41.1254 154.442,42.1254 150.5,42.5C 150.5,44.8333 150.5,47.1667 150.5,49.5C 162.5,50.1667 162.5,50.8333 150.5,51.5C 150.5,54.1667 150.5,56.8333 150.5,59.5C 154.5,59.5 158.5,59.5 162.5,59.5C 162.5,60.5 162.5,61.5 162.5,62.5C 157.5,62.5 152.5,62.5 147.5,62.5C 147.5,54.8333 147.5,47.1667 147.5,39.5C 152.167,39.5 156.833,39.5 161.5,39.5 Z"/></g>
<g><path style="opacity:1" fill="#255492" d="M 173.5,38.5 C 178.436,38.3105 182.602,39.9772 186,43.5C 186.483,44.448 186.649,45.448 186.5,46.5C 183.561,46.082 181.228,44.582 179.5,42C 169.139,41.708 165.639,46.5413 169,56.5C 174.986,62.1089 180.319,61.4422 185,54.5C 186.059,54.6301 186.892,55.1301 187.5,56C 183.025,62.6002 177.025,64.2669 169.5,61C 164.847,57.2115 163.347,52.3782 165,46.5C 167.074,42.9231 169.907,40.2565 173.5,38.5 Z"/></g>
<g><path style="opacity:1" fill="#245492" d="M 119.5,49.5 C 121.948,53.5586 124.281,57.7253 126.5,62C 125.056,62.7805 123.723,62.6139 122.5,61.5C 121.725,59.6036 120.725,57.937 119.5,56.5C 117.612,52.3944 115.446,48.3944 113,44.5C 109.833,50.1667 106.667,55.8333 103.5,61.5C 102.277,62.6139 100.944,62.7805 99.5,62C 104.126,54.5829 108.626,47.0829 113,39.5C 115.44,42.7278 117.606,46.0611 119.5,49.5 Z"/></g>
<g><path style="opacity:1" fill="#7091ba" d="M 140.5,39.5 C 141.404,40.209 141.737,41.209 141.5,42.5C 137.833,42.5 134.167,42.5 130.5,42.5C 134.119,42.1187 137.452,41.1187 140.5,39.5 Z"/></g>
<g><path style="opacity:1" fill="#688bb7" d="M 161.5,39.5 C 162.404,40.209 162.737,41.209 162.5,42.5C 158.5,42.5 154.5,42.5 150.5,42.5C 154.442,42.1254 158.109,41.1254 161.5,39.5 Z"/></g>
<g><path style="opacity:0.415" fill="#f1f4f9" d="M 119.5,47.5 C 119.5,48.1667 119.5,48.8333 119.5,49.5C 117.606,46.0611 115.44,42.7278 113,39.5C 108.626,47.0829 104.126,54.5829 99.5,62C 100.944,62.7805 102.277,62.6139 103.5,61.5C 106.667,55.8333 109.833,50.1667 113,44.5C 115.446,48.3944 117.612,52.3944 119.5,56.5C 119.167,56.5 118.833,56.5 118.5,56.5C 116.442,54.0734 114.609,51.4068 113,48.5C 110.155,53.5273 107.321,58.5273 104.5,63.5C 100.833,63.5 97.1667,63.5 93.5,63.5C 93.2299,58.7983 90.7299,56.7983 86,57.5C 81.0719,56.6009 78.2386,58.6009 77.5,63.5C 51.5,63.5 25.5,63.5 -0.5,63.5C -0.5,62.5 -0.5,61.5 -0.5,60.5C 11.4887,40.5277 23.4887,20.5277 35.5,0.5C 47.5987,20.3675 59.4321,40.3675 71,60.5C 75.5965,52.2981 80.4298,44.2981 85.5,36.5C 90.1529,43.797 94.8195,51.1303 99.5,58.5C 103.708,51.2502 108.041,44.0836 112.5,37C 114.113,36.9115 115.28,37.7448 116,39.5C 117.454,42.0711 118.62,44.7378 119.5,47.5 Z M 85.5,48.5 C 88.4809,51.1224 88.1476,51.789 84.5,50.5C 84.8627,49.8165 85.1961,49.1499 85.5,48.5 Z M 34.5,36.5 C 37.0922,38.8274 39.0922,41.6608 40.5,45C 37.1177,45.8236 33.7844,45.657 30.5,44.5C 32.3716,42.0901 33.705,39.4234 34.5,36.5 Z"/></g>
<g><path style="opacity:1" fill="#1d508f" d="M 84.5,39.5 C 85.3764,39.3691 86.0431,39.7025 86.5,40.5C 90.5,47.5 94.5,54.5 98.5,61.5C 98,61.8333 97.5,62.1667 97,62.5C 94.8001,61.1332 93.3001,59.1332 92.5,56.5C 88.2047,55.3391 83.8713,55.1725 79.5,56C 77.9186,57.828 76.5853,59.828 75.5,62C 74.365,62.7494 73.365,62.5827 72.5,61.5C 76.9584,54.3857 80.9584,47.0524 84.5,39.5 Z M 85.5,48.5 C 85.1961,49.1499 84.8627,49.8165 84.5,50.5C 88.1476,51.789 88.4809,51.1224 85.5,48.5 Z"/></g>
<g><path style="opacity:0.403" fill="#eef1f6" d="M 84.5,45.5 C 87.3008,47.2192 89.3008,49.7192 90.5,53C 87.1667,53.6667 83.8333,53.6667 80.5,53C 81.9858,50.5255 83.3192,48.0255 84.5,45.5 Z M 85.5,48.5 C 85.1961,49.1499 84.8627,49.8165 84.5,50.5C 88.1476,51.789 88.4809,51.1224 85.5,48.5 Z"/></g>
<g><path style="opacity:1" fill="#cad6e7" d="M 24.5,36.5 C 20.5901,45.3261 15.9234,53.6595 10.5,61.5C 10.5,61.1667 10.5,60.8333 10.5,60.5C 14.6653,52.1639 19.332,44.1639 24.5,36.5 Z"/></g>
<g><path style="opacity:0.36" fill="#e1e9f3" d="M 30.5,11.5 C 30.5,10.8333 30.8333,10.5 31.5,10.5C 39.2747,22.3815 46.2747,34.7149 52.5,47.5C 44.1401,47.1688 35.8068,47.5021 27.5,48.5C 26.9649,50.261 25.9649,51.5943 24.5,52.5C 27.553,46.0624 30.8863,39.7291 34.5,33.5C 33.081,31.6641 31.9143,29.6641 31,27.5C 28.8118,30.5672 26.6452,33.5672 24.5,36.5C 26.0068,32.1554 28.1735,28.1554 31,24.5C 34.7471,31.6628 38.7471,38.6628 43,45.5C 45.4659,46.7766 47.9659,46.7766 50.5,45.5C 44.1692,33.8671 37.5026,22.5337 30.5,11.5 Z M 34.5,36.5 C 33.705,39.4234 32.3716,42.0901 30.5,44.5C 33.7844,45.657 37.1177,45.8236 40.5,45C 39.0922,41.6608 37.0922,38.8274 34.5,36.5 Z"/></g>
<g><path style="opacity:1" fill="#094889" d="M 24.5,52.5 C 23.5,52.8333 22.8333,53.5 22.5,54.5C 21.9569,54.56 21.6236,54.8933 21.5,55.5C 36.4852,56.4993 51.4852,56.8327 66.5,56.5C 67.3606,58.3863 68.3606,60.2196 69.5,62C 49.6624,62.8291 29.9957,62.6624 10.5,61.5C 15.9234,53.6595 20.5901,45.3261 24.5,36.5C 26.6452,33.5672 28.8118,30.5672 31,27.5C 31.9143,29.6641 33.081,31.6641 34.5,33.5C 30.8863,39.7291 27.553,46.0624 24.5,52.5 Z"/></g>
<g><path style="opacity:1" fill="#1258a4" d="M 30.5,11.5 C 37.5026,22.5337 44.1692,33.8671 50.5,45.5C 47.9659,46.7766 45.4659,46.7766 43,45.5C 38.7471,38.6628 34.7471,31.6628 31,24.5C 28.1735,28.1554 26.0068,32.1554 24.5,36.5C 19.332,44.1639 14.6653,52.1639 10.5,60.5C 7.79497,62.5815 4.79497,62.9148 1.5,61.5C 11.1784,44.8059 20.845,28.1392 30.5,11.5 Z M 34.5,36.5 C 33.705,39.4234 32.3716,42.0901 30.5,44.5C 33.7844,45.657 37.1177,45.8236 40.5,45C 39.0922,41.6608 37.0922,38.8274 34.5,36.5 Z"/></g>
<g><path style="opacity:1" fill="#187dc1" d="M 24.5,52.5 C 25.9649,51.5943 26.9649,50.261 27.5,48.5C 35.8068,47.5021 44.1401,47.1688 52.5,47.5C 46.2747,34.7149 39.2747,22.3815 31.5,10.5C 32.0621,6.97228 33.7287,4.97228 36.5,4.5C 45.8333,20.8333 55.1667,37.1667 64.5,53.5C 57.8333,53.8333 51.1667,54.1667 44.5,54.5C 37.4649,54.4968 30.7983,53.8301 24.5,52.5 Z"/></g>
<g><path style="opacity:0.45" fill="#eceff5" d="M 130.5,51.5 C 133.187,51.3359 135.854,51.5026 138.5,52C 141.167,54.3333 141.167,56.6667 138.5,59C 135.854,59.4974 133.187,59.6641 130.5,59.5C 130.5,56.8333 130.5,54.1667 130.5,51.5 Z M 132.5,53.5 C 132.5,55.1667 132.5,56.8333 132.5,58.5C 136.56,59.1518 138.56,57.4851 138.5,53.5C 136.5,53.5 134.5,53.5 132.5,53.5 Z"/></g>
<g><path style="opacity:1" fill="#4174a5" d="M 22.5,54.5 C 37.1667,55.1667 51.8333,55.8333 66.5,56.5C 51.4852,56.8327 36.4852,56.4993 21.5,55.5C 21.6236,54.8933 21.9569,54.56 22.5,54.5 Z"/></g>
</svg>
