<svg width="44" height="44" viewBox="0 0 44 44" fill="none" xmlns="http://www.w3.org/2000/svg">
<path fill-rule="evenodd" clip-rule="evenodd" d="M2.74998 22C2.74998 22.3646 2.89485 22.7144 3.15271 22.9722C3.41057 23.2301 3.76031 23.375 4.12498 23.375L36.5557 23.375L27.9015 32.0265C27.7736 32.1543 27.6722 32.3061 27.603 32.4731C27.5339 32.6402 27.4982 32.8192 27.4982 33C27.4982 33.1808 27.5339 33.3598 27.603 33.5268C27.6722 33.6939 27.7736 33.8456 27.9015 33.9735C28.0293 34.1013 28.1811 34.2027 28.3481 34.2719C28.5152 34.3411 28.6942 34.3767 28.875 34.3767C29.0558 34.3767 29.2348 34.3411 29.4018 34.2719C29.5689 34.2027 29.7206 34.1013 29.8485 33.9735L40.8485 22.9735C40.9765 22.8457 41.0781 22.694 41.1474 22.527C41.2168 22.3599 41.2524 22.1808 41.2524 22C41.2524 21.8191 41.2168 21.64 41.1474 21.473C41.0781 21.3059 40.9765 21.1542 40.8485 21.0265L29.8485 10.0265C29.7206 9.89863 29.5689 9.79722 29.4018 9.72803C29.2348 9.65885 29.0558 9.62324 28.875 9.62324C28.6942 9.62324 28.5152 9.65885 28.3481 9.72803C28.1811 9.79722 28.0293 9.89863 27.9015 10.0265C27.7736 10.1543 27.6722 10.3061 27.603 10.4731C27.5339 10.6402 27.4982 10.8192 27.4982 11C27.4982 11.1808 27.5339 11.3598 27.603 11.5268C27.6722 11.6939 27.7736 11.8456 27.9015 11.9735L36.5557 20.625L4.12498 20.625C3.76031 20.625 3.41057 20.7698 3.15271 21.0277C2.89485 21.2856 2.74998 21.6353 2.74998 22Z" fill="#334483"/>
</svg>
