<svg width="44" height="44" viewBox="0 0 44 44" fill="none" xmlns="http://www.w3.org/2000/svg">
<g opacity="0.5">
<path fill-rule="evenodd" clip-rule="evenodd" d="M41.25 22C41.25 21.6354 41.1052 21.2856 40.8473 21.0278C40.5894 20.7699 40.2397 20.625 39.875 20.625H7.44427L16.0985 11.9735C16.2264 11.8457 16.3278 11.6939 16.397 11.5269C16.4661 11.3598 16.5018 11.1808 16.5018 11C16.5018 10.8192 16.4661 10.6402 16.397 10.4732C16.3278 10.3061 16.2264 10.1544 16.0985 10.0265C15.9707 9.89869 15.8189 9.79728 15.6519 9.72809C15.4848 9.6589 15.3058 9.62329 15.125 9.62329C14.9442 9.62329 14.7652 9.6589 14.5982 9.72809C14.4311 9.79728 14.2794 9.89869 14.1515 10.0265L3.15152 21.0265C3.02347 21.1543 2.92187 21.306 2.85256 21.473C2.78324 21.6401 2.74756 21.8192 2.74756 22C2.74756 22.1809 2.78324 22.36 2.85256 22.527C2.92187 22.6941 3.02347 22.8458 3.15152 22.9735L14.1515 33.9735C14.2794 34.1014 14.4311 34.2028 14.5982 34.272C14.7652 34.3412 14.9442 34.3768 15.125 34.3768C15.3058 34.3768 15.4848 34.3412 15.6519 34.272C15.8189 34.2028 15.9707 34.1014 16.0985 33.9735C16.2264 33.8457 16.3278 33.6939 16.397 33.5269C16.4661 33.3598 16.5018 33.1808 16.5018 33C16.5018 32.8192 16.4661 32.6402 16.397 32.4732C16.3278 32.3061 16.2264 32.1544 16.0985 32.0265L7.44427 23.375H39.875C40.2397 23.375 40.5894 23.2302 40.8473 22.9723C41.1052 22.7144 41.25 22.3647 41.25 22Z" fill="#808080"/>
</g>
</svg>
